<svg xmlns="http://www.w3.org/2000/svg" viewBox="0 0 100 100" width="100" height="100">
  <defs>
    <radialGradient id="petal" cx="50" cy="35" r="24" gradientUnits="userSpaceOnUse">
      <stop offset="0%" stop-color="#581c9c"/>
      <stop offset="55%" stop-color="#8b2fe6"/>
      <stop offset="100%" stop-color="#b15cff"/>
    </radialGradient>
    <radialGradient id="center" cx="50%" cy="40%" r="60%">
      <stop offset="0%" stop-color="#fff0a6"/>
      <stop offset="100%" stop-color="#f2c200"/>
    </radialGradient>
    <linearGradient id="leaf" x1="0" y1="0" x2="1" y2="1">
      <stop offset="0%" stop-color="#5bbf5f"/>
      <stop offset="100%" stop-color="#2f7d39"/>
    </linearGradient>
  </defs>
  <path d="M50 40 C 47 60, 53 74, 50 94" stroke="#2f7d39" stroke-width="3.4" fill="none" stroke-linecap="round"/>
  <ellipse cx="37" cy="63" rx="10.5" ry="5" fill="url(#leaf)" transform="rotate(-38 37 63)"/>
  <ellipse cx="63" cy="73" rx="10.5" ry="5" fill="url(#leaf)" transform="rotate(38 63 73)"/>
  <ellipse cx="50" cy="21" rx="8" ry="13.5" fill="url(#petal)" stroke="#581c9c" stroke-opacity="0.25" stroke-width="0.5" transform="rotate(45 50 35)"/>
  <ellipse cx="50" cy="21" rx="8" ry="13.5" fill="url(#petal)" stroke="#581c9c" stroke-opacity="0.25" stroke-width="0.5" transform="rotate(135 50 35)"/>
  <ellipse cx="50" cy="21" rx="8" ry="13.5" fill="url(#petal)" stroke="#581c9c" stroke-opacity="0.25" stroke-width="0.5" transform="rotate(225 50 35)"/>
  <ellipse cx="50" cy="21" rx="8" ry="13.5" fill="url(#petal)" stroke="#581c9c" stroke-opacity="0.25" stroke-width="0.5" transform="rotate(315 50 35)"/>
  <circle cx="50" cy="35" r="6.5" fill="url(#center)" stroke="#e0a800" stroke-width="0.5"/>
</svg>
